# xmcd
#
# Track frame offsets: 
#        450
#        13037
#        31675
#        46405
#        60295
#        75879
#        95797
#        116047
#        141735
#        159713
#        176092
#        190939
#        206061
#        224251
#        244306
#        262199
#        278022
#        293108
#
# Disc length: 4140 seconds
#
# Revision: 1
# Processed by: cddbd v1.5.2PL0 Copyright (c) Steve Scherf et al.
# Submitted via: ExactAudioCopyFreeDBPlugin 1.0
#
DISCID=13102612
DTITLE=Pix Lax - BEST OF [CD 1)
DYEAR=2008
DGENRE=ΕΝΤΕΧΝΟ
TTITLE0=ΠΥΞ ΛΑΞ - ΜΕ ΣΤΕΛΝΕΙΣ
TTITLE1=ΠΥΞ ΛΑΞ - ΚΑΛΕ ΜΟΥ ΜΠΑΣΤΑΡΔΕ ΗΡΩΑ
TTITLE2=ΠΥΞ ΛΑΞ - ΕΣΥ ΔΕΝ ΕΙΣΑΙ ΕΔΩ
TTITLE3=ΠΥΞ ΛΑΞ - ΠΩΣ ΣΕ ΜΙΣΩ
TTITLE4=ΠΥΞ ΛΑΞ - ΑΚΡΟΒΑΤΩ
TTITLE5=ΠΥΞ ΛΑΞ - ΠΟΥΛΑ ΜΕ
TTITLE6=ΠΥΞ ΛΑΞ - ΑΚΟΜΑ ΠΡΟΣΠΑΘΩ
TTITLE7=ΠΥΞ ΛΑΞ - ΓΙΑΤΙ
TTITLE8=ΠΥΞ ΛΑΞ and ΚΑΡΡΑΣ - ΑΣΤΗΝ ΝΑ ΛΕΕΙ
TTITLE9=ΠΥΞ ΛΑΞ - ΧΑΘΗΚΕΣ ΑΛΗΤΙΣΣΑ
TTITLE10=ΠΥΞ ΛΑΞ - Σ' ΑΓΑΠΩ
TTITLE11=ΠΥΞ ΛΑΞ - Η ΕΙΚΟΝΑ ΤΟΥ ΧΕΙΜΩΝΑ
TTITLE12=ΠΥΞ ΛΑΞ - ΛΕΝΕ ΓΙΑ ΜΕΝΑ
TTITLE13=ΠΥΞ ΛΑΞ and ΧΑΡΗΣ and ΠΑΝΟΣ ΚΑΤΣΙΜΙΧΑΣ - ΑΝΟΗΤΕΣ ΑΓΑΠΕΣ
TTITLE14=ΠΥΞ ΛΑΞ - ΔΕΝ ΘΑ ΔΑΚΡΥΣΩ ΠΙΑ ΓΙΑ ΣΕΝΑ
TTITLE15=ΠΥΞ ΛΑΞ - ΜΠΟΡΕΙ
TTITLE16=ΠΥΞ ΛΑΞ - ΤΙ ΕΙΝΑΙ ΑΥΤΟ ΠΟΥ ΜΑΣ ΧΩΡΙΖΕΙ
TTITLE17=ΠΥΞ ΛΑΞ - ΧΩΡΙΣ ΝΤΡΟΠΗ
EXTD=
EXTT0=
EXTT1=
EXTT2=
EXTT3=
EXTT4=
EXTT5=
EXTT6=
EXTT7=
EXTT8=
EXTT9=
EXTT10=
EXTT11=
EXTT12=
EXTT13=
EXTT14=
EXTT15=
EXTT16=
EXTT17=
PLAYORDER=
